<?xml version="1.0" encoding="UTF-8" standalone="no"?>
<!-- Created with Inkscape (http://www.inkscape.org/) -->

<svg
   width="512"
   height="512"
   viewBox="0 0 512 512"
   version="1.1"
   id="svg5"
   inkscape:version="1.1.2 (0a00cf5339, 2022-02-04)"
   sodipodi:docname="2.LogoDemokraticaPath.svg"
   xmlns:inkscape="http://www.inkscape.org/namespaces/inkscape"
   xmlns:sodipodi="http://sodipodi.sourceforge.net/DTD/sodipodi-0.dtd"
   xmlns="http://www.w3.org/2000/svg"
   xmlns:svg="http://www.w3.org/2000/svg">
  <sodipodi:namedview
     id="namedview7"
     pagecolor="#ebecf0"
     bordercolor="#999999"
     borderopacity="1"
     inkscape:pageshadow="0"
     inkscape:pageopacity="0"
     inkscape:pagecheckerboard="0"
     inkscape:document-units="px"
     showgrid="false"
     inkscape:zoom="1.7050781"
     inkscape:cx="272.71478"
     inkscape:cy="255.70676"
     inkscape:window-width="2560"
     inkscape:window-height="1348"
     inkscape:window-x="1366"
     inkscape:window-y="0"
     inkscape:window-maximized="1"
     inkscape:current-layer="g853" />
  <defs
     id="defs2">
    <inkscape:path-effect
       effect="fillet_chamfer"
       id="path-effect5362"
       is_visible="true"
       lpeversion="1"
       satellites_param="F,0,0,1,0,10,0,1 @ F,0,0,1,0,10,0,1 @ F,0,0,1,0,10,0,1 @ F,0,0,1,0,10,0,1 @ F,0,0,1,0,10,0,1 @ F,0,0,1,0,10,0,1"
       unit="px"
       method="auto"
       mode="F"
       radius="10"
       chamfer_steps="1"
       flexible="false"
       use_knot_distance="true"
       apply_no_radius="true"
       apply_with_radius="true"
       only_selected="false"
       hide_knots="false" />
  </defs>
  <g
     inkscape:label="Layer 1"
     inkscape:groupmode="layer"
     id="layer1">
    <ellipse
       style="fill:#ffffff;fill-opacity:0.99894;fill-rule:evenodd;stroke-width:1.24925"
       id="path31"
       cx="256"
       cy="256"
       rx="245.33701"
       ry="245.33748" />
    <path
       id="path1303"
       style="fill:#1988ff;stroke-width:1.40534"
       d="m 256.00001,25.37295 a 25.297045,25.297045 0 0 0 -25.29688,25.29688 25.297045,25.297045 0 0 0 25.29688,25.29883 25.297045,25.297045 0 0 0 25.29687,-25.29883 25.297045,25.297045 0 0 0 -25.29687,-25.29688 z m -38.98438,31.75977 a 201.01501,202.72318 0 0 0 -84.82031,39.71094 l 35.21094,35.21093 a 152.43903,152.43903 0 0 1 88.59375,-28.49414 152.43903,152.43903 0 0 1 88.63476,28.44922 L 379.79102,96.85342 A 201.01501,202.72318 0 0 0 294.98243,57.14249 40.008366,40.008366 0 0 1 256.00001,90.67959 40.008366,40.008366 0 0 1 217.01563,57.13272 Z m -119.865236,75.375 a 201.01501,202.72318 0 0 0 -38.36719,84.35156 40.008366,40.008366 0 0 1 31.89648,39.14063 40.008366,40.008366 0 0 1 -31.89843,39.14062 201.01501,202.72318 0 0 0 38.36914,84.35352 l 34.904296,-34.9043 a 152.43903,152.43903 0 0 1 -28.49414,-88.58984 152.43903,152.43903 0 0 1 28.49219,-88.58985 z m 317.689456,0.008 -34.84961,34.84961 a 152.43903,152.43903 0 0 1 28.44922,88.63477 152.43903,152.43903 0 0 1 -28.44922,88.63672 l 34.84766,34.84765 a 201.01501,202.72318 0 0 0 38.44726,-84.75 40.008366,40.008366 0 0 1 -31.96484,-38.73437 40.008366,40.008366 0 0 1 31.96484,-38.73438 201.01501,202.72318 0 0 0 -38.44531,-84.75 z m -364.169926,98.1875 a 25.297045,25.297045 0 0 0 -25.29688,25.29688 25.297045,25.297045 0 0 0 25.29688,25.29687 25.297045,25.297045 0 0 0 25.29883,-25.29687 25.297045,25.297045 0 0 0 -25.29883,-25.29688 z m 410.658206,0 a 25.297045,25.297045 0 0 0 -25.29688,25.29688 25.297045,25.297045 0 0 0 25.29883,25.29687 25.297045,25.297045 0 0 0 25.29688,-25.29687 25.297045,25.297045 0 0 0 -25.29883,-25.29688 z m -293.91992,149.24219 -35.20899,35.20898 a 201.01501,202.72318 0 0 0 84.81641,39.70703 40.008366,40.008366 0 0 1 38.98438,-33.54101 40.008366,40.008366 0 0 1 38.98242,33.53711 201.01501,202.72318 0 0 0 84.80664,-39.71094 l -35.1543,-35.1543 a 152.43903,152.43903 0 0 1 -88.63476,28.44727 152.43903,152.43903 0 0 1 -88.5918,-28.49414 z m 88.5918,56.08594 a 25.297045,25.297045 0 0 0 -25.29688,25.29883 25.297045,25.297045 0 0 0 25.29688,25.29687 25.297045,25.297045 0 0 0 25.29687,-25.29883 25.297045,25.297045 0 0 0 -25.29687,-25.29687 z" />
    <g
       id="g5527"
       transform="matrix(0.68386943,0,0,0.68386943,395.05152,138.24595)">
      <g
         id="g853"
         transform="translate(-815.85866,-257.02646)">
        <path
           id="rect4607"
           style="fill:#b1b2b5;stroke:#ffffff;stroke-width:0"
           d="m 613.49918,276.12588 a 14.459288,14.459288 0 0 0 -3.86702,0.2599 14.459288,14.459288 0 0 0 -5.32641,2.27337 l -54.01822,37.35922 -37.57056,25.98095 a 3.121127,3.1211269 0 0 0 1.77642,5.68913 H 528.225 v 127.70849 h -16.86177 v 40.05528 h -19.00091 v 40.05527 H 732.69397 V 515.45222 H 713.69591 V 475.39694 H 696.83129 V 347.68845 h 13.73446 a 3.1211274,3.1211273 0 0 0 1.77357,-5.68913 L 658.3211,304.6401 620.75339,278.65915 a 14.459288,14.459288 0 0 0 -7.25421,-2.53327 z m -64.29121,71.56257 h 28.22575 v 127.70849 h -28.22575 z m 49.20872,0 h 24.11314 4.11262 v 127.70849 h -28.22576 z m 49.20873,0 h 28.22575 v 127.70849 h -28.22575 z" />
        <g
           id="g5195"
           transform="matrix(0.83330804,0,0,1,-33.893564,0)" />
      </g>
    </g>
  </g>
</svg>
