<?xml version="1.0" encoding="UTF-8" standalone="no"?>
<svg
   viewBox="0 0 1344 480"
   version="1.1"
   id="svg8"
   xmlns="http://www.w3.org/2000/svg"
   xmlns:svg="http://www.w3.org/2000/svg">
  <defs
     id="defs12" />
  <g
     fill="#b1b2b5"
     stroke-width="1.08"
     aria-label="Dem kratica"
     font-family="FontAwesome"
     font-size="207.435"
     style="line-height:1.25;-inkscape-font-specification:FontAwesome"
     id="g6">
    <path
       fill="#1988ff"
       d="M592.191 236.803a5.624 5.53 0 0 0-5.623 5.529 5.624 5.53 0 0 0 5.623 5.53 5.624 5.53 0 0 0 5.625-5.53 5.624 5.53 0 0 0-5.625-5.53zm-8.666 6.941a44.686 44.31 0 0 0-18.855 8.68l7.828 7.695a33.888 33.32 0 0 1 19.693-6.226 33.888 33.32 0 0 1 19.705 6.216l7.815-7.683a44.686 44.31 0 0 0-18.854-8.68 8.894 8.745 0 0 1-8.666 7.33 8.894 8.745 0 0 1-8.666-7.332zm376.721 1.363a9.865 8.904 0 0 0-9.865 8.905 9.865 8.904 0 0 0 9.865 8.902 9.865 8.904 0 0 0 9.865-8.902 9.865 8.904 0 0 0-9.865-8.905zM556.88 260.22a44.686 44.31 0 0 0-8.53 18.437 8.894 8.745 0 0 1 7.092 8.555 8.894 8.745 0 0 1-7.091 8.555 44.686 44.31 0 0 0 8.529 18.437l7.76-7.629a33.888 33.32 0 0 1-6.334-19.363 33.888 33.32 0 0 1 6.334-19.363zm70.623.002-7.746 7.617a33.888 33.32 0 0 1 6.324 19.373 33.888 33.32 0 0 1-6.324 19.375l7.746 7.615a44.686 44.31 0 0 0 8.547-18.523 8.894 8.745 0 0 1-7.106-8.467 8.894 8.745 0 0 1 7.106-8.467 44.686 44.31 0 0 0-8.547-18.523zm324.215 10.652v59.55h17.338v-59.55Zm-405.17 10.809a5.624 5.53 0 0 0-5.623 5.529 5.624 5.53 0 0 0 5.623 5.53 5.624 5.53 0 0 0 5.623-5.53 5.624 5.53 0 0 0-5.623-5.53zm91.29 0a5.624 5.53 0 0 0-5.624 5.529 5.624 5.53 0 0 0 5.625 5.53 5.624 5.53 0 0 0 5.623-5.53 5.624 5.53 0 0 0-5.623-5.53zm-65.339 32.62-7.826 7.696a44.686 44.31 0 0 0 18.853 8.68 8.894 8.745 0 0 1 8.666-7.332 8.894 8.745 0 0 1 8.666 7.33 44.686 44.31 0 0 0 18.854-8.68l-7.815-7.683a33.888 33.32 0 0 1-19.705 6.218 33.888 33.32 0 0 1-19.693-6.228zm19.693 12.259a5.624 5.53 0 0 0-5.623 5.53 5.624 5.53 0 0 0 5.623 5.53 5.624 5.53 0 0 0 5.625-5.531 5.624 5.53 0 0 0-5.625-5.53z"
       id="ParteContraste" />
    <path
       d="M592.342 264.33a2.198 2.161 0 0 0-.588.038 2.198 2.161 0 0 0-.81.34l-8.212 5.585-5.712 3.883a.474.467 0 0 0 .27.85h2.088v19.09h-2.563v5.988h-2.89v5.987h36.538v-5.987h-2.888v-5.988h-2.564v-19.09h2.088a.474.467 0 0 0 .27-.85l-8.213-5.584-5.711-3.884a2.198 2.161 0 0 0-1.103-.379zm-9.774 10.696h4.291v19.09h-4.29zm7.481 0h4.291v19.09h-4.29zm7.481 0h4.292v19.09h-4.292zM672.002 30.83a27.472 27.473 0 0 0-9.396 1.658L153.037 217.973a1.764 1.763 0 0 0 .604 3.42h1036.722a1.764 1.763 0 0 0 .604-3.42L681.399 32.488a27.472 27.473 0 0 0-9.397-1.658Zm-19.885 196.694v102.48h13.5v-36.027l41.522 36.026h17.512l-45.169-39.253 43.345-34.512h-17.15l-40.06 31.811v-60.526Zm-446.515 4.15v98.33h30.283c21.016 0 36.486-3.974 46.41-11.921 9.925-7.947 14.888-20.396 14.888-37.344 0-16.86-4.94-29.241-14.815-37.145-9.876-7.947-25.37-11.92-46.483-11.92Zm686.373 3.622v20.943h-9.851v9.418h9.851V305.7c0 9.22 1.972 15.587 5.912 19.1 3.941 3.468 11.092 5.203 21.454 5.203h13.79V319.86h-13.79c-5.595 0-9.315-.856-11.164-2.568-1.8-1.712-2.702-5.577-2.702-11.592v-40.043h27.657v-9.418h-27.657v-20.943Zm-671.633 7.31h17.804c15.032 0 26.028 3.074 32.985 9.22 7.005 6.104 10.508 15.741 10.508 28.913 0 13.26-3.503 22.965-10.508 29.111-6.957 6.148-17.953 9.22-32.985 9.22h-17.804Zm133.977 11.856c-12.26 0-22.014 3.556-29.262 10.67-7.2 7.068-10.801 16.64-10.801 28.715 0 11.679 3.796 20.943 11.384 27.793 7.639 6.85 17.975 10.274 31.012 10.274a81.91 81.91 0 0 0 15.4-1.45 80.507 72.662 0 0 0 14.812-4.215V314.79c-4.768 2.283-9.585 3.995-14.45 5.137-4.816 1.14-9.802 1.712-14.958 1.712-8.903 0-15.859-2.175-20.87-6.521-4.962-4.39-7.734-10.755-8.318-19.098H390v-5.928c0-10.976-3.21-19.65-9.63-26.016-6.374-6.41-15.057-9.615-26.052-9.615zm96.979 0c-5.886 0-10.97 1.074-15.25 3.226-4.282 2.152-7.955 5.49-11.02 10.012v-11.461h-13.5v73.764h13.5v-41.69c0-7.156 2.019-12.82 6.057-16.992 4.037-4.215 9.486-6.322 16.345-6.322 5.79 0 10.07 1.712 12.844 5.137 2.774 3.38 4.158 8.628 4.158 15.742v44.125h13.5v-41.69c0-7.2 2.02-12.885 6.057-17.056 4.038-4.172 9.536-6.258 16.492-6.258 5.692 0 9.925 1.712 12.698 5.137 2.773 3.424 4.157 8.673 4.157 15.742v44.125h13.5v-44.522c0-9.922-2.31-17.561-6.93-22.918-4.622-5.4-11.19-8.101-19.704-8.101-6.324 0-11.82 1.294-16.49 3.884-4.67 2.59-8.685 6.609-12.041 12.053-1.995-5.181-5.085-9.131-9.268-11.854-4.136-2.722-9.17-4.083-15.105-4.083zm328.374 0c-6.47 0-11.968 1.097-16.493 3.292-4.524 2.152-8.196 5.468-11.017 9.946v-11.461h-13.5v73.764h13.5v-38.858c0-8.342 2.019-14.73 6.056-19.164 4.087-4.478 9.923-6.718 17.512-6.718 2.14 0 4.086.198 5.838.593 1.8.352 3.455.92 4.963 1.71l-.072-12.446a42.106 38.003 0 0 0-3.723-.461 26.455 26.455 0 0 0-3.064-.197zm49.62 0c-4.377 0-8.877.438-13.5 1.316-4.62.834-9.389 2.108-14.302 3.82v11.198a57.672 57.672 0 0 1 12.77-4.546 61.175 61.175 0 0 1 13.646-1.515c7.346 0 13.036 1.538 17.074 4.611 4.087 3.03 6.132 7.332 6.132 12.909v1.185h-18.827c-12.211 0-21.406 2.107-27.584 6.322-6.13 4.215-9.195 10.472-9.195 18.77 0 7.113 2.457 12.8 7.37 17.059 4.963 4.215 11.627 6.322 19.995 6.322 6.616 0 12.21-1.053 16.783-3.16 4.573-2.151 8.393-5.467 11.458-9.946v11.196h13.425V287.92c0-11.24-2.918-19.626-8.756-25.158-5.837-5.533-14.666-8.3-26.488-8.3zm198.265 0c-12.745 0-22.79 3.446-30.137 10.34-7.297 6.893-10.947 16.356-10.947 28.387 0 11.854 3.624 21.272 10.873 28.253 7.249 6.982 17.028 10.471 29.336 10.471 4.525 0 8.78-.395 12.77-1.185a55.01 49.648 0 0 0 11.676-3.557v-11.195c-3.795 1.887-7.614 3.315-11.457 4.28a44.16 39.857 0 0 1-11.53 1.384c-8.708 0-15.47-2.482-20.287-7.443-4.816-5.006-7.222-12.008-7.222-21.008 0-9.002 2.406-15.985 7.222-20.946 4.816-5.005 11.58-7.508 20.288-7.508 3.891 0 7.734.484 11.529 1.45 3.843.921 7.662 2.326 11.457 4.214v-11.327a53.656 48.427 0 0 0-11.457-3.424 55.673 50.247 0 0 0-12.114-1.186zm75.6 0c-4.379 0-8.878.438-13.5 1.316-4.622.834-9.39 2.108-14.303 3.82v11.198a57.679 57.679 0 0 1 12.77-4.546 61.177 61.177 0 0 1 13.646-1.515c7.346 0 13.037 1.538 17.075 4.611 4.086 3.03 6.131 7.332 6.131 12.909v1.185h-18.829c-12.21 0-21.404 2.107-27.581 6.322-6.13 4.215-9.196 10.472-9.196 18.77 0 7.113 2.458 12.8 7.371 17.059 4.962 4.215 11.627 6.322 19.994 6.322 6.616 0 12.21-1.053 16.783-3.16 4.574-2.151 8.393-5.467 11.457-9.946v11.196h13.426V287.92c0-11.24-2.918-19.626-8.756-25.158-5.837-5.533-14.667-8.3-26.488-8.3zm-748.694 10.273c6.616 0 11.919 1.976 15.908 5.928 4.038 3.951 6.106 9.243 6.203 15.873l-47.869.064c.681-6.937 3.259-12.315 7.734-16.135 4.525-3.82 10.533-5.73 18.024-5.73zm483.295 28.19h13.354v2.699c0 7.903-2.263 14.247-6.788 19.033-4.475 4.742-10.433 7.114-17.877 7.114-5.4 0-9.682-1.252-12.844-3.754-3.113-2.547-4.67-5.97-4.67-10.274 0-5.4 2.092-9.222 6.276-11.46 4.183-2.24 11.7-3.358 22.549-3.358zm273.862 0h13.355v2.699c0 7.903-2.262 14.247-6.786 19.033-4.476 4.742-10.437 7.114-17.88 7.114-5.4 0-9.68-1.252-12.842-3.754-3.113-2.547-4.67-5.97-4.67-10.274 0-5.4 2.093-9.222 6.276-11.46 4.184-2.24 11.698-3.358 22.547-3.358zm-960.004 50.828v35.14h-63.72v35.138H26.293v35.14H1317.71v-35.14h-61.604v-35.14h-63.718v-35.138z"
       id="ParteBase" />
  </g>
</svg>
